<svg width="36" height="36" viewBox="0 0 36 36" fill="none" xmlns="http://www.w3.org/2000/svg">
<mask id="mask0_713_1733" style="mask-type:alpha" maskUnits="userSpaceOnUse" x="0" y="0" width="36" height="36">
<path fill-rule="evenodd" clip-rule="evenodd" d="M18.0026 0.0477905C8.11922 0.0477905 0.107849 8.05937 0.107849 17.9425C0.107849 27.8255 8.11922 35.8375 18.0026 35.8375C27.8853 35.8375 35.8973 27.8255 35.8973 17.9425C35.8973 8.05937 27.8853 0.0477905 18.0026 0.0477905Z" fill="white"/>
</mask>
<g mask="url(#mask0_713_1733)">
<path fill-rule="evenodd" clip-rule="evenodd" d="M15.4486 28.2019H20.689V22.4556H15.4486V28.2019Z" fill="#E5C5A6"/>
<path fill-rule="evenodd" clip-rule="evenodd" d="M14.523 25.5131H15.415C15.415 26.643 16.5883 27.5587 18.0354 27.5587V35.8375H7.75415C7.75415 35.8375 9.06636 28.5251 9.82194 27.6503C10.894 26.4091 12.4436 26.0274 13.9388 25.6591C14.1349 25.6109 14.33 25.5628 14.523 25.5131ZM21.5496 25.5131H20.656C20.656 26.643 19.4827 27.5587 18.0355 27.5587V35.8375H28.3168C28.3168 35.8375 27.0044 28.5251 26.249 27.6503C25.1766 26.4087 23.6279 26.0272 22.1324 25.6588C21.9368 25.6106 21.7422 25.5627 21.5496 25.5131Z" fill="#2F6FDC"/>
<path fill-rule="evenodd" clip-rule="evenodd" d="M11.5006 14.2373C11.5006 7.45937 15.5244 6.01285 18.0688 6.01285V23.4669C16.7195 23.4669 13.8439 22.0764 13.3324 21.424C12.7764 20.7147 11.5006 18.151 11.5006 14.2373ZM24.6371 14.2373C24.6371 7.45937 20.6133 6.01285 18.0689 6.01285V23.4669C19.418 23.4669 22.294 22.0764 22.8053 21.424C23.3613 20.7147 24.6371 18.151 24.6371 14.2373Z" fill="#EFD4B6"/>
<path fill-rule="evenodd" clip-rule="evenodd" d="M25.9028 15.8535C26.015 14.7705 25.499 13.8095 24.7505 13.7065C24.0017 13.604 23.304 14.399 23.1916 15.4819C23.0794 16.5646 23.5954 17.5255 24.3444 17.6282C25.0927 17.7307 25.7905 16.936 25.9028 15.8535Z" fill="#EFD4B6"/>
<path fill-rule="evenodd" clip-rule="evenodd" d="M10.2349 15.8535C10.1227 14.7705 10.6387 13.8095 11.3871 13.7065C12.1359 13.604 12.8336 14.399 12.9458 15.4819C13.0582 16.5646 12.542 17.5255 11.7934 17.6282C11.045 17.7307 10.3469 16.936 10.2349 15.8535Z" fill="#EFD4B6"/>
<path fill-rule="evenodd" clip-rule="evenodd" d="M18.0686 20.9099C19.2547 20.9099 20.2159 20.5181 20.2159 20.035H15.9214C15.9214 20.5181 16.8827 20.9099 18.0686 20.9099Z" fill="#FFFFFE"/>
<path fill-rule="evenodd" clip-rule="evenodd" d="M23.3617 14.7747C23.6356 14.0756 24.1775 13.628 24.7502 13.7065C24.7514 13.7067 24.7531 13.7072 24.7546 13.7076C25.0142 12.9036 25.1074 11.9478 24.751 10.9335C22.8563 5.53916 25.0085 4.576 25.0085 4.576C25.0085 4.576 22.9131 4.48231 21.2876 5.82779C22.4085 4.0901 22.9131 3.64147 22.9131 3.64147C22.9131 3.64147 20.559 3.13705 18.0369 5.71537C18.5973 4.3141 19.27 3.60147 19.27 3.60147C19.27 3.60147 14.0011 3.64147 12.0952 7.45305C11.0089 9.62568 10.9251 11.9792 11.1881 13.7583C11.2523 13.7349 11.3182 13.716 11.3868 13.7065C11.6354 13.6726 11.8777 13.7389 12.0952 13.8804C12.0952 13.0583 12.0952 12.3314 12.0952 12.2175C13.1043 11.7688 14.1693 11.2084 14.1131 8.96631C16.4674 8.96631 17.7565 8.96631 17.7565 8.96631H21.5119C21.5119 8.96631 21.3436 11.4888 23.3617 12.1053C23.3617 13.1571 23.3617 14.0853 23.3617 14.7747Z" fill="black"/>
<path fill-rule="evenodd" clip-rule="evenodd" d="M18.0366 28.2225C19.9766 28.2225 21.5497 27.0095 21.5497 25.5131H20.6497C20.6497 26.6409 19.4802 27.5556 18.0366 27.5585C16.5924 27.5556 15.4234 26.6409 15.4234 25.5131H14.5232C14.5232 27.0095 16.0962 28.2225 18.0366 28.2225Z" fill="#004E9E"/>
</g>
</svg>
